<?xml version="1.0" encoding="UTF-8"?>
<svg id="Layer_1" data-name="Layer 1" xmlns="http://www.w3.org/2000/svg" version="1.1" viewBox="0 0 255 140.18">
  <defs>
    <style>
      .cls-1 {
        fill: #fff;
        stroke-width: 0px;
      }
    </style>
  </defs>
  <path class="cls-1" d="M167.63,55.72l-3.95,7.16,37.62,68.19h48.09L179.87,5.06l-31.84,57.7L116.19,5.06l-24.04,43.57,11.74,21.28-28.32,51.33L17.32,15.67h32.29l38.16,69.15,3.95-7.16L53.69,8.76H5.6l69.97,126.8,32.27-58.49,31.83,57.69,24.04-43.57-11.74-21.28,3.91-7.09-.04-.07,12.15-22.01.05.04,11.82-21.41,57.81,104.78h-32.29l-37.76-68.43ZM139.68,120.45l-39.63-71.81,16.14-29.26,39.63,71.81-16.14,29.26Z"/>
</svg>