<svg xmlns="http://www.w3.org/2000/svg" width="142" height="157" viewBox="0 0 142 157" fill="none">
<mask id="mask1_1712_33041" style="mask-type:luminance" maskUnits="userSpaceOnUse" x="0" y="0" width="138" height="157"><path d="M136.714 0C136.28 0 135.722 0.0619948 135.01 0.123963C117.412 2.014 60.1247 16.2047 35.4316 45.9805C31.5278 50.6901 22.8836 62.4331 23.1005 76.4689C23.1934 81.6432 24.8045 86.4768 26.7874 90.1949C20.9317 94.8115 15.6957 99.8309 11.513 105.315C7.79508 110.18 -0.725084 121.365 0.0494821 135.37C0.638152 145.781 7.76412 155.448 10.9553 156.625C11.2961 156.47 4.94467 139.584 27.3761 122.294C43.1772 110.087 72.177 99.8619 105.05 89.5132C112.857 87.0345 100.898 85.1445 99.2868 75.6013C96.5914 59.8304 119.054 53.2618 108.829 54.78C95.5689 56.763 60.0628 67.1117 33.4177 85.3304C35.2147 79.2885 39.8311 71.7283 50.8919 64.54C72.4558 50.5041 95.3211 44.5862 129.774 34.7332C137.643 32.4714 125.808 30.2095 124.569 20.5734C122.71 6.10383 141.392 0.123967 136.931 0.0310144H136.652L136.714 0Z" fill="white"></path></mask><g mask="url(#mask1_1712_33041)"><path d="M141.454 0H-0.725098V156.594H141.454V0Z" fill="url(#paint0_linear_1712_33041)"></path></g><defs><linearGradient id="paint0_linear_1712_33041" x1="-0.63215" y1="83.9039" x2="137.024" y2="83.9039" gradientUnits="userSpaceOnUse"><stop stop-color="#1B9DD9"></stop><stop offset="0.15" stop-color="#1B9DD9"></stop><stop offset="0.23" stop-color="#168CCA"></stop><stop offset="0.37" stop-color="#0F73B4"></stop><stop offset="0.52" stop-color="#0A61A4"></stop><stop offset="0.67" stop-color="#06569B"></stop><stop offset="0.85" stop-color="#065398"></stop><stop offset="1" stop-color="#065398"></stop></linearGradient></defs></svg>
