<svg xmlns="http://www.w3.org/2000/svg" width="812" height="157" viewBox="0 0 812 157" fill="none"><mask id="mask0_1712_33041" style="mask-type:luminance" maskUnits="userSpaceOnUse" x="0" y="0" width="812" height="157"><path d="M811.546 0H0.0183105V156.625H811.546V0Z" fill="white"></path></mask><g mask="url(#mask0_1712_33041)"><path d="M227.617 55.7405L229.321 63.7344L228.546 63.9512C226.935 61.3486 224.24 60.636 220.429 60.636H196.696C196.479 63.3316 196.355 68.413 196.355 74.9816H209.864C212.745 74.9816 218.756 74.7027 221.172 74.114C220.955 75.6633 220.894 76.7477 220.894 77.9251C220.894 79.1955 220.955 80.125 221.172 81.7362C218.756 81.0856 212.745 80.8996 209.864 80.8996H196.355C196.355 91.0004 197.068 95.2453 197.409 99.2112C194.992 99.0563 192.39 98.8705 189.911 98.8705C187.432 98.8705 184.892 99.1493 182.413 99.2112C182.909 94.7495 183.467 88.7386 183.467 76.6548C183.467 61.7514 182.971 59.1487 182.413 54.687C187.216 54.8419 192.947 55.0279 197.688 55.0279C202.428 55.0279 206.456 54.8109 226.439 54.687C227.214 54.687 227.431 54.9659 227.648 55.7405" fill="black"></path><path d="M268.886 58.56C277.437 73.8972 282.58 83.7811 293.114 99.2112C285.183 98.7155 283.726 98.7155 275.795 99.2112C274.246 95.6171 272.542 91.992 270.776 88.3978H242.581C240.475 92.3018 238.554 95.9579 237.128 99.2112C234.867 98.7155 228.422 98.7155 226.161 99.2112C234.495 88.6147 246.237 70.8607 254.014 58.7149C253.859 58.498 253.735 58.2812 253.673 58.0643C252.62 56.3602 251.349 56.0194 247.941 55.5856V54.656C250.482 54.656 254.231 54.9969 256.772 54.9969C258.971 54.9969 261.295 54.656 262.627 54.656C265.942 54.656 267.089 55.2757 268.855 58.529M257.267 63.9823C253.859 69.3425 249.769 75.9422 245.958 82.4179H267.801C264.61 76.407 261.171 70.396 257.267 63.9823Z" fill="black"></path><path d="M312.757 98.8395C308.884 98.8395 304.268 99.0564 300.333 99.1803C300.829 94.7186 301.386 88.7077 301.386 76.6239C301.386 61.7205 300.891 59.0867 300.333 54.656C302.812 54.8109 305.414 54.9969 307.831 54.9969C310.247 54.9969 312.912 54.7799 315.329 54.656C314.833 59.1177 314.275 61.7205 314.275 76.6239C314.275 84.246 314.492 89.4203 314.709 93.2313H334.786C339.805 93.2313 342.005 93.1074 346.993 87.7781L347.829 88.119L342.81 98.1578C342.376 98.9324 342.036 99.1493 340.765 99.1493C320.193 99.1493 316.537 98.8084 312.788 98.8084" fill="black"></path><path d="M366.729 76.5307C366.729 88.1808 375.001 95.679 388.355 95.679C399.508 95.679 405.178 93.0143 411.096 87.1273L411.963 87.4062L409.857 96.6704C409.64 97.507 409.299 97.662 407.936 98.0958C401.987 99.7999 396.069 100.636 388.355 100.636C368.929 100.636 351.888 93.4791 351.888 76.4688C351.888 61.5654 365.582 53.2926 388.076 53.2926C394.923 53.2926 401.646 54.2841 407.781 56.3291C408.555 56.6079 409.113 57.0417 409.392 57.8783L411.158 68.5369L410.228 68.7538C406.758 63.0217 399.756 58.3741 388.169 58.3741C376.581 58.3741 366.698 64.168 366.698 76.5307" fill="black"></path><path d="M455.277 53.2617C473.154 53.2617 489.11 61.3176 489.11 76.0351C489.11 89.8231 475.323 100.637 453.418 100.637C435.82 100.637 419.647 92.5186 419.647 77.7392C419.647 62.9597 433.558 53.2926 455.277 53.2926M435.077 76.9027C435.077 88.6456 442.76 95.648 454.441 95.648C465.099 95.648 473.743 89.6371 473.743 77.1195C473.743 65.4694 465.966 58.3122 454.379 58.3122C443.783 58.3122 435.077 64.385 435.077 76.9027Z" fill="black"></path><path d="M499.52 53.4786C503.269 56.0193 517.181 65.5004 530.193 72.5648C536.638 76.159 540.665 78.7307 544.197 80.6827C544.414 72.348 544.91 67.6693 543.64 54.656C546.056 55.1517 550.084 55.1517 552.47 54.656C550.858 68.5678 550.766 84.7106 551.912 100.606H551.137C547.481 98.2197 535.026 89.7921 524.709 84.06C516.654 79.7532 511.015 76.2829 506.553 73.7422C506.213 81.0235 506.213 89.854 507.328 99.1803C504.725 98.6845 501.038 98.6845 498.498 99.1803C499.985 88.4288 499.551 64.7568 498.498 53.2307H499.489L499.551 53.4476L499.52 53.4786Z" fill="black"></path><path d="M597.364 76.6548C597.364 61.7514 596.93 59.3346 596.651 54.7489C600.183 54.9039 605.76 55.0898 609.292 55.0898C614.156 55.0898 616.852 54.687 626.022 54.687C646.657 54.687 658.306 63.4555 658.306 76.8717C658.306 90.2878 646.657 99.2112 626.022 99.2112C616.48 99.2112 613.939 98.8705 609.849 98.8705C606.101 98.8705 600.369 99.0873 596.62 99.2112C596.837 94.6256 597.333 88.7386 597.333 76.6548M644.054 76.8717C644.054 66.1202 637.486 60.7599 626.022 60.7599C621.065 60.7599 615.086 60.8839 610.128 61.1937C610.066 65.1597 610.066 68.6918 610.066 76.6548C610.066 83.8121 610.066 88.4597 610.19 92.7045C615.085 92.9834 621.127 93.1384 626.022 93.1384C637.486 93.1384 644.054 87.6852 644.054 76.9027" fill="black"></path><path d="M675.099 98.8395C672.682 98.8395 670.08 99.0564 667.601 99.1803C668.097 94.7186 668.654 88.7077 668.654 76.6239C668.654 61.7205 668.159 59.0867 667.601 54.656C670.08 54.8109 672.682 54.9969 675.099 54.9969C677.516 54.9969 680.18 54.7799 682.597 54.656C682.101 59.1177 681.543 61.7205 681.543 76.6239C681.543 88.7077 682.194 94.7186 682.597 99.1803C680.211 99.0254 677.577 98.8395 675.099 98.8395Z" fill="black"></path><path d="M744.872 54.687C746.979 55.1208 752.648 55.1208 754.755 54.687C742.796 69.9622 731.797 85.3614 721.046 100.637H720.117C710.512 85.2994 700.536 69.4665 689.165 54.687C696.229 55.1828 698.986 55.1828 706.05 54.687C711.627 65.7793 718.784 75.5394 724.981 85.4233C730.713 77.5844 738.83 64.7259 744.841 54.687" fill="black"></path><path d="M806.651 55.7405L808.355 63.7344L807.581 63.9512C805.97 61.2556 803.274 60.636 799.463 60.636H776.226C776.164 64.9428 775.885 69.2496 775.885 73.5564H788.898C791.873 73.5564 797.883 73.2775 800.207 72.7198C799.99 74.269 799.928 75.3224 799.928 76.5308C799.928 77.8012 799.99 78.7307 800.207 80.3419C797.883 79.6912 791.873 79.5054 788.898 79.5054H775.885C775.885 84.091 776.164 88.6766 776.226 93.2933H796.923C802.995 93.2933 806.032 92.5807 810.772 87.7161L811.546 88.0569L806.806 97.9409C806.248 99.1493 805.969 99.2112 804.606 99.2112C785.18 99.2112 780.44 98.8705 775.359 98.8705C771.052 98.8705 765.909 99.0873 761.509 99.2112C762.005 94.7495 762.563 88.7386 762.563 76.6548C762.563 61.7514 762.067 59.1487 761.509 54.687C765.909 54.8419 771.114 55.0279 775.514 55.0279C780.409 55.0279 785.118 54.687 805.474 54.687C806.248 54.687 806.465 54.9659 806.682 55.7405" fill="black"></path></g><mask id="mask1_1712_33041" style="mask-type:luminance" maskUnits="userSpaceOnUse" x="0" y="0" width="138" height="157"><path d="M136.714 0C136.28 0 135.722 0.0619948 135.01 0.123963C117.412 2.014 60.1247 16.2047 35.4316 45.9805C31.5278 50.6901 22.8836 62.4331 23.1005 76.4689C23.1934 81.6432 24.8045 86.4768 26.7874 90.1949C20.9317 94.8115 15.6957 99.8309 11.513 105.315C7.79508 110.18 -0.725084 121.365 0.0494821 135.37C0.638152 145.781 7.76412 155.448 10.9553 156.625C11.2961 156.47 4.94467 139.584 27.3761 122.294C43.1772 110.087 72.177 99.8619 105.05 89.5132C112.857 87.0345 100.898 85.1445 99.2868 75.6013C96.5914 59.8304 119.054 53.2618 108.829 54.78C95.5689 56.763 60.0628 67.1117 33.4177 85.3304C35.2147 79.2885 39.8311 71.7283 50.8919 64.54C72.4558 50.5041 95.3211 44.5862 129.774 34.7332C137.643 32.4714 125.808 30.2095 124.569 20.5734C122.71 6.10383 141.392 0.123967 136.931 0.0310144H136.652L136.714 0Z" fill="white"></path></mask><g mask="url(#mask1_1712_33041)"><path d="M141.454 0H-0.725098V156.594H141.454V0Z" fill="url(#paint0_linear_1712_33041)"></path></g><defs><linearGradient id="paint0_linear_1712_33041" x1="-0.63215" y1="83.9039" x2="137.024" y2="83.9039" gradientUnits="userSpaceOnUse"><stop stop-color="#1B9DD9"></stop><stop offset="0.15" stop-color="#1B9DD9"></stop><stop offset="0.23" stop-color="#168CCA"></stop><stop offset="0.37" stop-color="#0F73B4"></stop><stop offset="0.52" stop-color="#0A61A4"></stop><stop offset="0.67" stop-color="#06569B"></stop><stop offset="0.85" stop-color="#065398"></stop><stop offset="1" stop-color="#065398"></stop></linearGradient></defs></svg>